<?xml version="1.0" encoding="utf-8"?>
<!-- Generator: Adobe Illustrator 23.0.2, SVG Export Plug-In . SVG Version: 6.00 Build 0)  -->
<svg version="1.1" id="Layer_1" xmlns="http://www.w3.org/2000/svg" xmlns:xlink="http://www.w3.org/1999/xlink" x="0px" y="0px"
	 viewBox="0 0 260.78 289.45" style="enable-background:new 0 0 260.78 289.45;" xml:space="preserve">
<style type="text/css">
	.st0{fill:#FFFFFF;stroke:#000000;stroke-width:6;stroke-miterlimit:10;}
	.st1{fill:none;stroke:#000000;stroke-width:6;stroke-miterlimit:10;}
	.st2{fill:#FFFFFF;}
</style>
<g>
	<g>
		<path class="st0" d="M57.69,165.62l0.32,70.38c0.05,10.59,4.34,20.8,12.13,27.99c15.77,14.57,36.85,23.47,60,23.47
			c23.16,0,44.24-8.9,60-23.47c7.78-7.19,12.08-17.39,12.13-27.99l0.32-70.38H57.69z"/>
		<path class="st0" d="M130.15,228.56h22.07h19.55v-34.59l37.72,9.47c32.44,8.15,49.14-16.15,49.29-49.6c0-0.23,0-0.45,0-0.68
			C258.78,73.81,222.4,2,130.15,2S2,75.08,2,154.44c0,0.23,0,0.45,0,0.68c0.15,33.45,16.37,56.47,48.81,48.32l37.72-9.47v34.59
			h19.55H130.15z"/>
		<line class="st1" x1="108.08" y1="228.56" x2="108.08" y2="205"/>
		<line class="st1" x1="130.18" y1="228.56" x2="130.18" y2="205"/>
		<line class="st1" x1="152.29" y1="227.81" x2="152.29" y2="204.25"/>
	</g>
	<g>
		<path d="M121.61,189.02h-1.75c-2.14,0-3.87-1.73-3.87-3.87v-14.97c0-2.14,1.73-3.87,3.87-3.87h1.75c2.14,0,3.87,1.73,3.87,3.87
			v14.97C125.48,187.28,123.75,189.02,121.61,189.02z"/>
		<path d="M140.44,189.02h-1.75c-2.14,0-3.87-1.73-3.87-3.87v-14.97c0-2.14,1.73-3.87,3.87-3.87h1.75c2.14,0,3.87,1.73,3.87,3.87
			v14.97C144.31,187.28,142.58,189.02,140.44,189.02z"/>
	</g>
	<g>
		<g>
			<circle cx="65.67" cy="117.95" r="32.36"/>
			<circle class="st2" cx="65.67" cy="117.95" r="13.18"/>
		</g>
		<g>
			<circle cx="194.69" cy="117.95" r="32.36"/>
			<circle class="st2" cx="194.69" cy="117.95" r="13.18"/>
		</g>
	</g>
</g>
</svg>
