<svg id="Layer_1" data-name="Layer 1" xmlns="http://www.w3.org/2000/svg" viewBox="0 0 100 100"><defs><style>.cls-1{fill:#231f20;}</style></defs><title>Main_Icon-02-01</title><path class="cls-1" d="M23.35,23.7a4.07,4.07,0,0,1-1.29,1.44,5.58,5.58,0,0,1-1.84.81,9.74,9.74,0,0,1-2.19.24A13.2,13.2,0,0,1,15.46,26a10.6,10.6,0,0,1-2.23-.72V21.14h.25a16.74,16.74,0,0,0,.61,1.57,8.14,8.14,0,0,0,.9,1.51,4.45,4.45,0,0,0,1.26,1.15,3.34,3.34,0,0,0,1.76.45A3.26,3.26,0,0,0,20.38,25a3.53,3.53,0,0,0,.88-2.62,2.22,2.22,0,0,0-.61-1.6A3.1,3.1,0,0,0,19,19.9c-.55-.1-1.09-.22-1.6-.34a14,14,0,0,1-1.39-.4,3.82,3.82,0,0,1-1.9-1.4,3.9,3.9,0,0,1-.73-2.39,3.68,3.68,0,0,1,.41-1.73,4.09,4.09,0,0,1,1.08-1.33,4.74,4.74,0,0,1,1.58-.86,6.33,6.33,0,0,1,1.92-.29,10.46,10.46,0,0,1,2.3.23,17.38,17.38,0,0,1,1.89.57l.37,3.85-.25.06c-.29-.62-.58-1.19-.87-1.72a6.83,6.83,0,0,0-1-1.36,3.47,3.47,0,0,0-2.73-1.2,2.84,2.84,0,0,0-1,.19,2.58,2.58,0,0,0-.9.54,2.87,2.87,0,0,0-.64.9,3.08,3.08,0,0,0-.25,1.26A1.92,1.92,0,0,0,16,16.12a4.36,4.36,0,0,0,1.64.74c.45.11.95.21,1.49.33s1,.22,1.39.32a4.63,4.63,0,0,1,2.37,1.43,3.84,3.84,0,0,1,1,2.67A4.33,4.33,0,0,1,23.35,23.7Z"/><path class="cls-1" d="M44.6,21.53A8,8,0,0,1,43,24a7.14,7.14,0,0,1-2.31,1.65,6.76,6.76,0,0,1-2.78.58,7.93,7.93,0,0,1-2.51-.43A7.17,7.17,0,0,1,33,24.41,7.33,7.33,0,0,1,31.22,22a8,8,0,0,1-.7-3.45,7.31,7.31,0,0,1,.55-2.76A7.35,7.35,0,0,1,38,11.16a7.3,7.3,0,0,1,2.51.46A7.39,7.39,0,0,1,42.82,13a7.14,7.14,0,0,1,1.7,2.3,7.3,7.3,0,0,1,.67,3.24A7.74,7.74,0,0,1,44.6,21.53Zm-2.53-5.29A8.15,8.15,0,0,0,41.31,14a5,5,0,0,0-1.39-1.69,3.44,3.44,0,0,0-2.14-.67,3,3,0,0,0-1.83.62,5.41,5.41,0,0,0-1.38,1.63,8.64,8.64,0,0,0-.87,2.27,11.39,11.39,0,0,0-.29,2.55,13.76,13.76,0,0,0,.25,2.7,7.22,7.22,0,0,0,.8,2.25,4.54,4.54,0,0,0,1.43,1.55,3.69,3.69,0,0,0,2.07.57,3,3,0,0,0,2-.73,5.48,5.48,0,0,0,1.33-1.83,9.5,9.5,0,0,0,.74-2.37,12.74,12.74,0,0,0,.24-2.35A11.7,11.7,0,0,0,42.07,16.24Z"/><path class="cls-1" d="M61,26.13v-.34a7.12,7.12,0,0,0,1.33-.2.62.62,0,0,0,.5-.64V17.14a5.51,5.51,0,0,0-.68-2.9,2.5,2.5,0,0,0-2.3-1.1,3.09,3.09,0,0,0-1.7.44,9.09,9.09,0,0,0-1.52,1.27V25a.79.79,0,0,0,.21.44,1,1,0,0,0,.38.21,2.31,2.31,0,0,0,.49.07,4.37,4.37,0,0,1,.59.08v.31h-6v-.31a3.84,3.84,0,0,0,1.22-.28.73.73,0,0,0,.51-.71V14.17a1.25,1.25,0,0,0,0-.38.75.75,0,0,0-.27-.28l-.65-.35a5.6,5.6,0,0,0-.74-.36v-.18l4.06-1.46h.19v3.35l.06,0a11.5,11.5,0,0,1,.85-1.13,6.74,6.74,0,0,1,1.16-1.1,6.45,6.45,0,0,1,1.42-.83,4.19,4.19,0,0,1,1.6-.32,3.17,3.17,0,0,1,2.75,1.33,5.76,5.76,0,0,1,1,3.44v9.12a.48.48,0,0,0,.2.37,1.53,1.53,0,0,0,.48.23,5.07,5.07,0,0,0,.61.12c.21,0,.42.06.6.08v.28Z"/><path class="cls-1" d="M89.59,13.69a1,1,0,0,1-.79.35,1.62,1.62,0,0,1-.55-.15c-.25-.11-.53-.23-.83-.38s-.6-.3-.91-.48l-.84-.48-.12.13c.31.47.57.92.79,1.33a3.41,3.41,0,0,1,.33,1.61A4.23,4.23,0,0,1,85,19.3a8,8,0,0,1-4.71,1.22,6.77,6.77,0,0,1-.89-.06,8.16,8.16,0,0,0-1.07-.06,3.11,3.11,0,0,0-1.58.46,1.21,1.21,0,0,0-.59,1,1.18,1.18,0,0,0,.31.83,2.4,2.4,0,0,0,.78.51,4.48,4.48,0,0,0,1,.25,10.23,10.23,0,0,0,1.09.06h5a5.25,5.25,0,0,1,2,.34,4.59,4.59,0,0,1,1.49.93,3.92,3.92,0,0,1,.94,1.35A4.18,4.18,0,0,1,89,27.84a4.79,4.79,0,0,1-.6,2.31,6.3,6.3,0,0,1-1.69,1.93,8.49,8.49,0,0,1-2.56,1.32,10.39,10.39,0,0,1-3.24.48,11.17,11.17,0,0,1-5.26-1,3.06,3.06,0,0,1-1.87-2.77,2.12,2.12,0,0,1,.35-1.18,5.58,5.58,0,0,1,.9-1,10.27,10.27,0,0,1,1.21-.9l1.32-.82v-.06a4.5,4.5,0,0,1-2.43-.9,2.33,2.33,0,0,1-.86-1.89,2.4,2.4,0,0,1,.28-1.11,3.4,3.4,0,0,1,.78-1,4.64,4.64,0,0,1,1.16-.72,5,5,0,0,1,1.44-.39v-.09a4.74,4.74,0,0,1-2.12-1.55A4.25,4.25,0,0,1,75,15.9,4,4,0,0,1,75.49,14a4.52,4.52,0,0,1,1.26-1.5,6.15,6.15,0,0,1,1.9-1,7.41,7.41,0,0,1,2.4-.37,8.85,8.85,0,0,1,2.1.22,7.82,7.82,0,0,1,1.9.74,3.37,3.37,0,0,0,.64.15,3.85,3.85,0,0,0,.63,0A2,2,0,0,0,87,12.2a4.56,4.56,0,0,0,.54-.25,4.3,4.3,0,0,1,.53-.25,1.84,1.84,0,0,1,.65-.11,1.16,1.16,0,0,1,.87.37,1.28,1.28,0,0,1,.34.9A1.2,1.2,0,0,1,89.59,13.69Zm-3,13.87a2,2,0,0,0-.9-.9,5.28,5.28,0,0,0-1.7-.48A21,21,0,0,0,81.12,26c-.44,0-.88,0-1.34.06l-1.11.12a3.36,3.36,0,0,0-2,1.18,3.07,3.07,0,0,0-.56,1.77,2.84,2.84,0,0,0,.55,1.74A4.9,4.9,0,0,0,78,32.16a6.31,6.31,0,0,0,1.72.76,6.22,6.22,0,0,0,1.68.25,12.16,12.16,0,0,0,1.6-.09,7,7,0,0,0,1.19-.28,4.88,4.88,0,0,0,1.91-1.4,3.39,3.39,0,0,0,.82-2.29A3,3,0,0,0,86.54,27.56ZM84,14.1a4,4,0,0,0-.64-1.25,3.07,3.07,0,0,0-2.52-1.2,2.73,2.73,0,0,0-1.4.36,3.28,3.28,0,0,0-1,1,4.46,4.46,0,0,0-.63,1.38,5.69,5.69,0,0,0-.22,1.58,4.45,4.45,0,0,0,1,3,3,3,0,0,0,3.78.76,3.36,3.36,0,0,0,1.07-1A4.56,4.56,0,0,0,84,17.28a6.45,6.45,0,0,0,.21-1.66A5.37,5.37,0,0,0,84,14.1Z"/><path class="cls-1" d="M23.35,53.7a4.07,4.07,0,0,1-1.29,1.44,5.58,5.58,0,0,1-1.84.81,9.74,9.74,0,0,1-2.19.24A13.2,13.2,0,0,1,15.46,56a10.6,10.6,0,0,1-2.23-.72V51.14h.25a16.74,16.74,0,0,0,.61,1.57,8.14,8.14,0,0,0,.9,1.51,4.45,4.45,0,0,0,1.26,1.15,3.34,3.34,0,0,0,1.76.45A3.26,3.26,0,0,0,20.38,55a3.53,3.53,0,0,0,.88-2.62,2.22,2.22,0,0,0-.61-1.6A3.1,3.1,0,0,0,19,49.9c-.55-.1-1.09-.22-1.6-.34a14,14,0,0,1-1.39-.4,3.82,3.82,0,0,1-1.9-1.4,3.9,3.9,0,0,1-.73-2.39,3.68,3.68,0,0,1,.41-1.73,4.09,4.09,0,0,1,1.08-1.33,4.74,4.74,0,0,1,1.58-.86,6.33,6.33,0,0,1,1.92-.29,10.46,10.46,0,0,1,2.3.23,17.38,17.38,0,0,1,1.89.57l.37,3.85-.25.06c-.29-.62-.58-1.19-.87-1.72a6.83,6.83,0,0,0-1-1.36,3.47,3.47,0,0,0-2.73-1.2,2.84,2.84,0,0,0-1,.19,2.58,2.58,0,0,0-.9.54,2.87,2.87,0,0,0-.64.9,3.08,3.08,0,0,0-.25,1.26A1.92,1.92,0,0,0,16,46.12a4.36,4.36,0,0,0,1.64.74c.45.11.95.21,1.49.33s1,.22,1.39.32a4.63,4.63,0,0,1,2.37,1.43,3.84,3.84,0,0,1,1,2.67A4.33,4.33,0,0,1,23.35,53.7Z"/><path class="cls-1" d="M44.6,51.53A8,8,0,0,1,43,54a7,7,0,0,1-2.31,1.64,6.61,6.61,0,0,1-2.78.59,7.93,7.93,0,0,1-2.51-.43A7.17,7.17,0,0,1,33,54.41,7.33,7.33,0,0,1,31.22,52a8,8,0,0,1-.7-3.45,7.31,7.31,0,0,1,.55-2.76A7.35,7.35,0,0,1,38,41.16a7.3,7.3,0,0,1,2.51.46A7.39,7.39,0,0,1,42.82,43a7.14,7.14,0,0,1,1.7,2.3,7.3,7.3,0,0,1,.67,3.24A7.74,7.74,0,0,1,44.6,51.53Zm-2.53-5.29A8.15,8.15,0,0,0,41.31,44a5,5,0,0,0-1.39-1.69,3.44,3.44,0,0,0-2.14-.67,3,3,0,0,0-1.83.62,5.41,5.41,0,0,0-1.38,1.63,8.64,8.64,0,0,0-.87,2.27,11.39,11.39,0,0,0-.29,2.55,13.76,13.76,0,0,0,.25,2.7,7.22,7.22,0,0,0,.8,2.25,4.54,4.54,0,0,0,1.43,1.55,3.69,3.69,0,0,0,2.07.57,3,3,0,0,0,2-.73,5.48,5.48,0,0,0,1.33-1.83,9.5,9.5,0,0,0,.74-2.37,12.74,12.74,0,0,0,.24-2.35A11.7,11.7,0,0,0,42.07,46.24Z"/><path class="cls-1" d="M61,56.13v-.34a7.12,7.12,0,0,0,1.33-.2.62.62,0,0,0,.5-.64V47.14a5.51,5.51,0,0,0-.68-2.9,2.5,2.5,0,0,0-2.3-1.1,3.09,3.09,0,0,0-1.7.44,9.09,9.09,0,0,0-1.52,1.27V55a.79.79,0,0,0,.21.45,1,1,0,0,0,.38.21,2.31,2.31,0,0,0,.49.07,4.37,4.37,0,0,1,.59.08v.31h-6v-.31a3.84,3.84,0,0,0,1.22-.28.73.73,0,0,0,.51-.71V44.17a1.25,1.25,0,0,0,0-.38.75.75,0,0,0-.27-.28l-.65-.35a5.6,5.6,0,0,0-.74-.36v-.18l4.06-1.46h.19v3.35l.06,0a11.5,11.5,0,0,1,.85-1.13,6.74,6.74,0,0,1,1.16-1.1,6.45,6.45,0,0,1,1.42-.83,4.19,4.19,0,0,1,1.6-.32,3.17,3.17,0,0,1,2.75,1.33,5.76,5.76,0,0,1,1,3.44v9.12a.48.48,0,0,0,.2.37,1.53,1.53,0,0,0,.48.23,5.07,5.07,0,0,0,.61.12c.21,0,.42.06.6.08v.28Z"/><path class="cls-1" d="M89.59,43.69a1,1,0,0,1-.79.35,1.62,1.62,0,0,1-.55-.15c-.25-.11-.53-.23-.83-.38s-.6-.3-.91-.48l-.84-.48-.12.13c.31.47.57.92.79,1.33a3.41,3.41,0,0,1,.33,1.61A4.23,4.23,0,0,1,85,49.3a8,8,0,0,1-4.71,1.22,6.77,6.77,0,0,1-.89-.06,8.16,8.16,0,0,0-1.07-.06,3.11,3.11,0,0,0-1.58.46,1.21,1.21,0,0,0-.28,1.85,2.4,2.4,0,0,0,.78.51,4,4,0,0,0,1,.24,8.19,8.19,0,0,0,1.09.07h5a5.25,5.25,0,0,1,2,.34,4.59,4.59,0,0,1,1.49.93,3.92,3.92,0,0,1,.94,1.35A4.18,4.18,0,0,1,89,57.84a4.79,4.79,0,0,1-.6,2.31,6.42,6.42,0,0,1-1.69,1.93,8.49,8.49,0,0,1-2.56,1.32,10.39,10.39,0,0,1-3.24.48,11.3,11.3,0,0,1-5.26-1,3.06,3.06,0,0,1-1.87-2.77,2.12,2.12,0,0,1,.35-1.18,5.58,5.58,0,0,1,.9-1,10.27,10.27,0,0,1,1.21-.9l1.32-.82v-.06a4.5,4.5,0,0,1-2.43-.9,2.33,2.33,0,0,1-.86-1.89,2.4,2.4,0,0,1,.28-1.11,3.4,3.4,0,0,1,.78-1,4.64,4.64,0,0,1,1.16-.72,5,5,0,0,1,1.44-.39v-.09a4.74,4.74,0,0,1-2.12-1.55A4.25,4.25,0,0,1,75,45.9,4,4,0,0,1,75.49,44a4.52,4.52,0,0,1,1.26-1.5,6.15,6.15,0,0,1,1.9-1,7.41,7.41,0,0,1,2.4-.37,8.85,8.85,0,0,1,2.1.22,7.82,7.82,0,0,1,1.9.74,3.37,3.37,0,0,0,.64.15,3.85,3.85,0,0,0,.63,0A2,2,0,0,0,87,42.2a4.56,4.56,0,0,0,.54-.25,4.3,4.3,0,0,1,.53-.25,1.84,1.84,0,0,1,.65-.11,1.16,1.16,0,0,1,.87.37,1.28,1.28,0,0,1,.34.9A1.2,1.2,0,0,1,89.59,43.69Zm-3,13.87a2,2,0,0,0-.9-.9,5.28,5.28,0,0,0-1.7-.48A21,21,0,0,0,81.12,56c-.44,0-.88,0-1.34.06l-1.11.12a3.36,3.36,0,0,0-2,1.18,3.07,3.07,0,0,0-.56,1.77,2.84,2.84,0,0,0,.55,1.74A4.9,4.9,0,0,0,78,62.16a6.31,6.31,0,0,0,1.72.76,6.64,6.64,0,0,0,1.68.25,12.16,12.16,0,0,0,1.6-.09,7,7,0,0,0,1.19-.28,4.88,4.88,0,0,0,1.91-1.4,3.39,3.39,0,0,0,.82-2.29A3,3,0,0,0,86.54,57.56ZM84,44.1a4,4,0,0,0-.64-1.25,3.07,3.07,0,0,0-2.52-1.2,2.73,2.73,0,0,0-1.4.36,3.28,3.28,0,0,0-1,1,4.46,4.46,0,0,0-.63,1.38,5.69,5.69,0,0,0-.22,1.58,4.45,4.45,0,0,0,1,3,3,3,0,0,0,3.78.76,3.36,3.36,0,0,0,1.07-1A4.56,4.56,0,0,0,84,47.28a6.45,6.45,0,0,0,.21-1.66A5.37,5.37,0,0,0,84,44.1Z"/><path class="cls-1" d="M21.66,86.22h-.19v-3.1h0a6.34,6.34,0,0,1-2.12,2.3,5.86,5.86,0,0,1-3.05.74,5.65,5.65,0,0,1-2.22-.45,5.3,5.3,0,0,1-1.91-1.39A7,7,0,0,1,10.81,82a9.39,9.39,0,0,1-.5-3.18,7.68,7.68,0,0,1,.58-3,7.46,7.46,0,0,1,1.61-2.44A7.35,7.35,0,0,1,15,71.75a8.44,8.44,0,0,1,3.23-.59,9.75,9.75,0,0,1,1.75.15,15,15,0,0,1,1.5.37c0-.3,0-.73,0-1.27s0-1.08,0-1.64V66.14l-2.54-1V65l4.93-1.37h.25V83.74a6,6,0,0,0,.93.44l1.27.53v.21Zm-.22-11.65a6,6,0,0,0-1.73-2,3.45,3.45,0,0,0-2-.77,3.71,3.71,0,0,0-2.06.55,4.58,4.58,0,0,0-1.41,1.49,7,7,0,0,0-.82,2.14,11.35,11.35,0,0,0-.26,2.48,9.67,9.67,0,0,0,.31,2.47,6.37,6.37,0,0,0,.93,2.1A5,5,0,0,0,16,84.46a4,4,0,0,0,2.12.55,3.06,3.06,0,0,0,2.19-.86A3.93,3.93,0,0,0,21.44,82Z"/><path class="cls-1" d="M39.52,83a6,6,0,0,1-1.18,1.57,6.33,6.33,0,0,1-1.79,1.18,5.56,5.56,0,0,1-2.3.46,6.82,6.82,0,0,1-2.89-.59,6.06,6.06,0,0,1-2.21-1.66,7.8,7.8,0,0,1-1.42-2.51,9.33,9.33,0,0,1-.49-3.05A7.74,7.74,0,0,1,29,73.45a6.78,6.78,0,0,1,2.08-1.66,5.82,5.82,0,0,1,2.71-.63,8,8,0,0,1,2.28.31,5.27,5.27,0,0,1,1.86.94A5,5,0,0,1,39.24,74a5.79,5.79,0,0,1,.58,2.26H29.87c0,.17,0,.36,0,.58s0,.44,0,.66a8.64,8.64,0,0,0,.37,2.5,6.6,6.6,0,0,0,1.09,2.11,4.91,4.91,0,0,0,1.8,1.44,5.69,5.69,0,0,0,2.51.52,4.67,4.67,0,0,0,2.71-.79,3.63,3.63,0,0,0,1.53-1.93l.25.06A6,6,0,0,1,39.52,83ZM36,72.51a2.82,2.82,0,0,0-2.13-.83,2.57,2.57,0,0,0-1.56.52,6,6,0,0,0-2,2.57,5.17,5.17,0,0,0-.34,1.07h1.27l1.1,0,1.13,0h1.3q.46,0,.87,0a2.39,2.39,0,0,0,.71-.16,2.36,2.36,0,0,0,.33-.46,1.61,1.61,0,0,0,.11-.66A2.74,2.74,0,0,0,36,72.51Z"/><path class="cls-1" d="M51.09,83.7a4.14,4.14,0,0,1-1.28,1.44A5.63,5.63,0,0,1,48,86a9.65,9.65,0,0,1-2.18.24A13.3,13.3,0,0,1,43.2,86,10.79,10.79,0,0,1,41,85.23V81.14h.25a14.53,14.53,0,0,0,.62,1.57,7.59,7.59,0,0,0,.89,1.51A4.36,4.36,0,0,0,44,85.37a3.31,3.31,0,0,0,1.76.45A3.24,3.24,0,0,0,48.12,85,3.49,3.49,0,0,0,49,82.35a2.25,2.25,0,0,0-.6-1.6,3,3,0,0,0-1.65-.85c-.56-.1-1.09-.22-1.61-.34s-1-.26-1.39-.4a3.91,3.91,0,0,1-1.9-1.4,4,4,0,0,1-.72-2.39,3.65,3.65,0,0,1,.4-1.73,4.37,4.37,0,0,1,1.08-1.34,5.06,5.06,0,0,1,1.59-.85,6.28,6.28,0,0,1,1.92-.29,10.36,10.36,0,0,1,2.29.23A15.41,15.41,0,0,1,50.3,72l.37,3.85-.24.06c-.29-.62-.58-1.19-.87-1.72a6.83,6.83,0,0,0-1-1.36,3.51,3.51,0,0,0-2.73-1.2,2.9,2.9,0,0,0-1,.19,2.58,2.58,0,0,0-.9.54,2.7,2.7,0,0,0-.63.9,2.91,2.91,0,0,0-.25,1.25,2,2,0,0,0,.65,1.65,4.36,4.36,0,0,0,1.64.74l1.49.33c.54.11,1,.22,1.4.32a4.63,4.63,0,0,1,2.37,1.43,3.83,3.83,0,0,1,1,2.66A4.34,4.34,0,0,1,51.09,83.7Z"/><path class="cls-1" d="M52.54,86.13v-.31l.74-.08a3.15,3.15,0,0,0,.67-.15,1.35,1.35,0,0,0,.49-.3.58.58,0,0,0,.2-.46V74.2a1.94,1.94,0,0,0,0-.44.6.6,0,0,0-.27-.34,5.56,5.56,0,0,0-.66-.37,6.86,6.86,0,0,0-.83-.34v-.19L57,71.16h.19V85a.64.64,0,0,0,.26.45,1.32,1.32,0,0,0,.48.21,3.79,3.79,0,0,0,.6.07,4.48,4.48,0,0,1,.64.08v.31ZM57,67.45a1.62,1.62,0,0,1-1.19.48,1.67,1.67,0,0,1-1.67-1.67,1.58,1.58,0,0,1,.48-1.18,1.77,1.77,0,0,1,2.38,0,1.58,1.58,0,0,1,.48,1.18A1.61,1.61,0,0,1,57,67.45Z"/><path class="cls-1" d="M76.11,73.68a1,1,0,0,1-.79.36,1.72,1.72,0,0,1-.56-.15c-.25-.11-.52-.23-.82-.38s-.6-.3-.91-.48l-.84-.48-.13.13a14.64,14.64,0,0,1,.8,1.33,3.54,3.54,0,0,1,.32,1.61,4.23,4.23,0,0,1-1.7,3.67,8,8,0,0,1-4.72,1.23,6.62,6.62,0,0,1-.88-.06,8.27,8.27,0,0,0-1.07-.06,3.08,3.08,0,0,0-1.58.46,1.21,1.21,0,0,0-.59,1,1.16,1.16,0,0,0,.31.83,2.4,2.4,0,0,0,.78.51,4,4,0,0,0,1,.24,8,8,0,0,0,1.08.07h5a5.27,5.27,0,0,1,2,.34,4.55,4.55,0,0,1,1.48.93,4,4,0,0,1,1,1.35,4.18,4.18,0,0,1,.33,1.69,4.81,4.81,0,0,1-.61,2.31,6.28,6.28,0,0,1-1.69,1.93,8.26,8.26,0,0,1-2.56,1.32,10.37,10.37,0,0,1-3.23.48,11.27,11.27,0,0,1-5.26-1,3.07,3.07,0,0,1-1.88-2.77,2.05,2.05,0,0,1,.36-1.18,5.58,5.58,0,0,1,.9-1,8.85,8.85,0,0,1,1.21-.9l1.32-.82v-.06a4.5,4.5,0,0,1-2.44-.9,2.32,2.32,0,0,1-.85-1.89,2.35,2.35,0,0,1,.28-1.12,3.47,3.47,0,0,1,.77-1A4.43,4.43,0,0,1,63,80.54a4.78,4.78,0,0,1,1.44-.39v-.1a4.54,4.54,0,0,1-2.12-1.55,4.2,4.2,0,0,1-.76-2.6A4.11,4.11,0,0,1,62,74a4.52,4.52,0,0,1,1.26-1.5,6.2,6.2,0,0,1,1.91-1,7.37,7.37,0,0,1,2.4-.37,8.82,8.82,0,0,1,2.09.22,7.89,7.89,0,0,1,1.91.74,3.48,3.48,0,0,0,.63.15,5.85,5.85,0,0,0,.64,0,2,2,0,0,0,.67-.1c.19-.08.37-.16.54-.25a3.71,3.71,0,0,1,.53-.25,1.8,1.8,0,0,1,.65-.11,1.13,1.13,0,0,1,.86.37,1.29,1.29,0,0,1,.35.9A1.16,1.16,0,0,1,76.11,73.68Zm-3,13.88a2,2,0,0,0-.9-.9,5.42,5.42,0,0,0-1.71-.48A20.78,20.78,0,0,0,67.63,86c-.43,0-.88,0-1.33.06l-1.12.12a3.33,3.33,0,0,0-2,1.18,3.07,3.07,0,0,0-.56,1.77,2.9,2.9,0,0,0,.54,1.74,4.9,4.9,0,0,0,1.35,1.25,6.45,6.45,0,0,0,1.72.76,6.72,6.72,0,0,0,1.69.25,12.26,12.26,0,0,0,1.6-.09,7.19,7.19,0,0,0,1.19-.28,5,5,0,0,0,1.91-1.4,3.44,3.44,0,0,0,.82-2.29A3.14,3.14,0,0,0,73.06,87.56ZM70.48,74.1a3.77,3.77,0,0,0-.63-1.25,3.11,3.11,0,0,0-2.53-1.2,2.69,2.69,0,0,0-1.39.36,3.18,3.18,0,0,0-1,1,4.61,4.61,0,0,0-.64,1.38A6,6,0,0,0,64,75.93a4.5,4.5,0,0,0,.94,3,2.89,2.89,0,0,0,2.31,1.13,2.82,2.82,0,0,0,1.47-.37,3.37,3.37,0,0,0,1.07-1,4.34,4.34,0,0,0,.65-1.41,6,6,0,0,0,.22-1.66A5,5,0,0,0,70.48,74.1Z"/><path class="cls-1" d="M85.67,86.13v-.34a7.38,7.38,0,0,0,1.34-.2A.61.61,0,0,0,87.5,85V77.14a5.51,5.51,0,0,0-.68-2.9,2.49,2.49,0,0,0-2.29-1.1,3.12,3.12,0,0,0-1.71.44,9.5,9.5,0,0,0-1.52,1.27V85a.79.79,0,0,0,.22.45,1,1,0,0,0,.37.21,2.41,2.41,0,0,0,.5.07,4.59,4.59,0,0,1,.59.08v.31H77v-.31a3.84,3.84,0,0,0,1.23-.28.73.73,0,0,0,.51-.71V74.17a1.2,1.2,0,0,0,0-.38.79.79,0,0,0-.26-.28l-.65-.35A6.4,6.4,0,0,0,77,72.8v-.18l4.06-1.46h.19v3.35l.06,0a11.5,11.5,0,0,1,.85-1.13,7.64,7.64,0,0,1,1.16-1.11,6.65,6.65,0,0,1,1.42-.82,4.24,4.24,0,0,1,1.61-.32,3.18,3.18,0,0,1,2.75,1.33,5.76,5.76,0,0,1,1,3.44v9.12a.45.45,0,0,0,.2.37,1.34,1.34,0,0,0,.48.23,4.54,4.54,0,0,0,.6.12c.22,0,.42.06.61.08v.28Z"/></svg>